<svg width="133" height="82" viewBox="0 0 133 82" fill="none" xmlns="http://www.w3.org/2000/svg">
<path fill-rule="evenodd" clip-rule="evenodd" d="M48.6373 10.451V8.86473e-07L28.5392 0V19.6961L9.2451 19.6961V39.7941H0V50.2451H9.2451V82H19.6961V50.2451H28.5392V61.902H38.9902V30.1471H48.2353V19.6961H38.9902V10.451H48.6373ZM19.6961 30.1471H28.5392V39.7941H19.6961V30.1471Z" fill="#3CB27F"/>
<path fill-rule="evenodd" clip-rule="evenodd" d="M97.2745 16.8823H94.0588V43.0098H97.2745V16.8823ZM76.7745 24.5196H73.5588V39.7941V43.0098H76.7745L86.4216 43.0098H89.6373V24.5196H86.4216V39.7941H76.7745V24.5196ZM125.814 16.8823H129.029V43.0098H125.814V16.8823ZM70.7451 17.2843V20.5L63.5098 20.5V25.3235L70.7451 25.3235V28.5392H63.5098V43.0098H60.2941V28.5392H56.6765V25.3235H60.2941V17.2843L60.2941 17.2843L63.5098 17.2843H70.7451ZM114.157 20.5V17.2843H106.922H103.706L103.706 20.5L103.706 25.3235H100.088V28.5392H103.706V43.0098H106.922V28.5392H114.157V25.3235L106.922 25.3235V20.5L114.157 20.5ZM120.99 19.4951C120.99 20.7161 120 21.7059 118.779 21.7059C117.558 21.7059 116.569 20.7161 116.569 19.4951C116.569 18.2741 117.558 17.2843 118.779 17.2843C120 17.2843 120.99 18.2741 120.99 19.4951ZM116.971 24.1176H120.186V43.0098H116.971V24.1176Z" fill="#193C3F"/>
<path d="M114.245 47.0294C114.911 47.0294 115.451 46.4895 115.451 45.8235C115.451 45.1575 114.911 44.6176 114.245 44.6176C113.579 44.6176 113.039 45.1575 113.039 45.8235C113.039 46.4895 113.579 47.0294 114.245 47.0294Z" fill="#193C3F"/>
<path d="M115.049 56.2745V48.2353H113.441V56.2745H115.049Z" fill="#193C3F"/>
<path fill-rule="evenodd" clip-rule="evenodd" d="M75.6493 49.4166V44.6791H77.0904V56.2745H75.6493V54.8499C74.9425 55.9432 73.8989 56.4899 72.5185 56.4899C71.3479 56.4899 70.3595 56.0702 69.5534 55.2309C68.7362 54.3806 68.3276 53.348 68.3276 52.1333C68.3276 50.9296 68.7362 49.9026 69.5534 49.0522C70.3706 48.2019 71.359 47.7767 72.5185 47.7767C73.8989 47.7767 74.9425 48.3234 75.6493 49.4166ZM72.7007 55.0984C73.54 55.0984 74.2412 54.8168 74.8045 54.2536C75.3677 53.6683 75.6493 52.9615 75.6493 52.1333C75.6493 51.294 75.3677 50.5927 74.8045 50.0295C74.2412 49.4553 73.54 49.1682 72.7007 49.1682C71.8725 49.1682 71.1767 49.4553 70.6135 50.0295C70.0503 50.5927 69.7687 51.294 69.7687 52.1333C69.7687 52.9615 70.0503 53.6683 70.6135 54.2536C71.1767 54.8168 71.8725 55.0984 72.7007 55.0984Z" fill="#193C3F"/>
<path fill-rule="evenodd" clip-rule="evenodd" d="M67.1013 52.7959H60.1606C60.3041 53.5247 60.6409 54.099 61.171 54.5186C61.7011 54.9272 62.3637 55.1315 63.1588 55.1315C64.2521 55.1315 65.0472 54.7284 65.5442 53.9223L66.77 54.618C65.9528 55.8659 64.738 56.4899 63.1257 56.4899C61.8226 56.4899 60.7514 56.0813 59.9121 55.2641C59.0949 54.4248 58.6863 53.3812 58.6863 52.1333C58.6863 50.8743 59.0894 49.8363 59.8955 49.0191C60.7017 48.1908 61.7453 47.7767 63.0263 47.7767C64.2411 47.7767 65.2294 48.2074 65.9914 49.0688C66.7644 49.9081 67.151 50.9351 67.151 52.1498C67.151 52.3597 67.1344 52.575 67.1013 52.7959ZM63.0263 49.135C62.2643 49.135 61.6238 49.3504 61.1048 49.7811C60.5968 50.2118 60.282 50.7971 60.1606 51.5369H65.6932C65.5718 50.775 65.2681 50.1842 64.7822 49.7645C64.2963 49.3449 63.711 49.135 63.0263 49.135Z" fill="#193C3F"/>
<path d="M91.496 56.4899C90.2481 56.4899 89.21 56.0757 88.3818 55.2475C87.5536 54.4082 87.1394 53.3701 87.1394 52.1333C87.1394 50.8964 87.5536 49.8639 88.3818 49.0356C89.21 48.1963 90.2481 47.7767 91.496 47.7767C92.3132 47.7767 93.0476 47.9755 93.6991 48.373C94.3507 48.7596 94.8366 49.2841 95.1569 49.9467L93.9476 50.6424C93.7378 50.2007 93.412 49.8473 92.9703 49.5823C92.5396 49.3172 92.0482 49.1847 91.496 49.1847C90.6678 49.1847 89.972 49.4663 89.4088 50.0295C88.8567 50.6038 88.5806 51.3051 88.5806 52.1333C88.5806 52.9505 88.8567 53.6462 89.4088 54.2204C89.972 54.7836 90.6678 55.0653 91.496 55.0653C92.0482 55.0653 92.5451 54.9383 92.9869 54.6843C93.4286 54.4192 93.7654 54.0658 93.9973 53.6241L95.2231 54.3364C94.8587 54.999 94.3452 55.5236 93.6826 55.9101C93.02 56.2966 92.2911 56.4899 91.496 56.4899Z" fill="#193C3F"/>
<path fill-rule="evenodd" clip-rule="evenodd" d="M103.391 49.4166V47.9921H104.832V56.2745H103.391V54.8499C102.684 55.9432 101.64 56.4899 100.26 56.4899C99.0893 56.4899 98.1009 56.0702 97.2948 55.2309C96.4776 54.3806 96.069 53.348 96.069 52.1333C96.069 50.9295 96.4776 49.9026 97.2948 49.0522C98.112 48.2019 99.1003 47.7767 100.26 47.7767C101.64 47.7767 102.684 48.3234 103.391 49.4166ZM100.442 55.0984C101.281 55.0984 101.983 54.8168 102.546 54.2536C103.109 53.6683 103.391 52.9615 103.391 52.1333C103.391 51.294 103.109 50.5927 102.546 50.0295C101.983 49.4553 101.281 49.1682 100.442 49.1682C99.6138 49.1682 98.9181 49.4553 98.3549 50.0295C97.7917 50.5927 97.5101 51.294 97.5101 52.1333C97.5101 52.9615 97.7917 53.6683 98.3549 54.2536C98.9181 54.8168 99.6138 55.0984 100.442 55.0984Z" fill="#193C3F"/>
<path fill-rule="evenodd" clip-rule="evenodd" d="M120.437 56.4899C121.663 56.4899 122.696 56.0702 123.535 55.2309C124.385 54.3806 124.81 53.348 124.81 52.1333C124.81 50.9185 124.385 49.886 123.535 49.0356C122.696 48.1963 121.663 47.7767 120.437 47.7767C119.211 47.7767 118.179 48.1963 117.34 49.0356C116.5 49.8749 116.081 50.9075 116.081 52.1333C116.081 53.3591 116.5 54.3916 117.34 55.2309C118.179 56.0702 119.211 56.4899 120.437 56.4899ZM122.524 54.237C121.961 54.8002 121.265 55.0818 120.437 55.0818C119.62 55.0818 118.93 54.8002 118.367 54.237C117.803 53.6738 117.522 52.9726 117.522 52.1333C117.522 51.294 117.803 50.5927 118.367 50.0295C118.93 49.4663 119.62 49.1847 120.437 49.1847C121.265 49.1847 121.961 49.4663 122.524 50.0295C123.088 50.5927 123.369 51.294 123.369 52.1333C123.369 52.9726 123.088 53.6738 122.524 54.237Z" fill="#193C3F"/>
<path d="M80.3233 48.2353H78.9951V56.2745H85.6361V48.2353H84.3079V54.9463H80.3233V48.2353Z" fill="#193C3F"/>
<path d="M107.613 56.2745H112.235V54.8676H109.02V49.4412H112.235V48.0343H109.02V46.6274H107.613V48.0343H106.206V49.4412H107.613V56.2745Z" fill="#193C3F"/>
<path d="M125.902 48.2353V56.6765H127.309V49.6422H131.53V56.6765H132.936V48.2353H125.902Z" fill="#193C3F"/>
</svg>
