<svg width="29" height="121" viewBox="0 0 29 121" fill="none" xmlns="http://www.w3.org/2000/svg">
<path d="M26.5 33.5L25.0047 33.3813L24.9976 33.4703L25.0012 33.5596L26.5 33.5ZM0.481769 107.899C-0.126549 108.461 -0.16381 109.41 0.398544 110.018L9.56262 119.932C10.125 120.54 11.074 120.577 11.6823 120.015C12.2906 119.452 12.3279 118.503 11.7655 117.895L3.61969 109.083L12.4313 100.938C13.0397 100.375 13.0769 99.4262 12.5146 98.8179C11.9522 98.2096 11.0032 98.1724 10.3949 98.7347L0.481769 107.899ZM6.37131 110.599C7.19974 110.6 7.87257 109.93 7.87412 109.102C7.87567 108.273 7.20536 107.6 6.37693 107.599L6.37131 110.599ZM16.1103 107.516C15.2819 107.522 14.6148 108.198 14.6203 109.026C14.6259 109.855 15.302 110.522 16.1304 110.516L16.1103 107.516ZM24.8494 106.896C25.1591 106.128 24.7872 105.254 24.0189 104.944C23.2505 104.634 22.3766 105.006 22.0669 105.775L24.8494 106.896ZM23.7335 98.6298C23.6117 99.4492 24.1772 100.212 24.9966 100.334C25.816 100.456 26.579 99.8903 26.7009 99.0709L23.7335 98.6298ZM27.5624 91.3079C27.6304 90.4823 27.0161 89.7579 26.1905 89.6899C25.3649 89.6219 24.6405 90.2362 24.5725 91.0618L27.5624 91.3079ZM25.0592 83.4392C25.0192 84.2666 25.6576 84.9698 26.485 85.0098C27.3125 85.0498 28.0157 84.4115 28.0557 83.584L25.0592 83.4392ZM28.3395 75.8544C28.3614 75.0263 27.7078 74.3372 26.8797 74.3153C26.0515 74.2934 25.3624 74.947 25.3405 75.7751L28.3395 75.8544ZM25.48 68.101C25.4712 68.9294 26.1356 69.6081 26.964 69.6169C27.7924 69.6257 28.4711 68.9613 28.4799 68.1329L25.48 68.101ZM28.5127 60.417C28.5113 59.5886 27.8385 58.9181 27.0101 58.9196C26.1817 58.921 25.5113 59.5937 25.5127 60.4221L28.5127 60.417ZM25.4588 52.729C25.4688 53.5574 26.1484 54.2208 26.9767 54.2108C27.8051 54.2009 28.4685 53.5212 28.4586 52.6929L25.4588 52.729ZM28.3299 44.994C28.3122 44.1657 27.6265 43.5086 26.7983 43.5262C25.97 43.5439 25.3129 44.2296 25.3306 45.0578L28.3299 44.994ZM25.1307 37.3548C25.1562 38.1828 25.8482 38.8334 26.6762 38.8078C27.5043 38.7822 28.1548 38.0902 28.1292 37.2622L25.1307 37.3548ZM28.0561 29.8375C28.0355 29.0093 27.3475 28.3546 26.5193 28.3752C25.6911 28.3957 25.0364 29.0838 25.057 29.9119L28.0561 29.8375ZM24.3743 22.8952C24.5167 23.7113 25.2938 24.2574 26.1099 24.115C26.926 23.9725 27.472 23.1954 27.3296 22.3794L24.3743 22.8952ZM25.3492 15.0831C25.0505 14.3104 24.1819 13.9263 23.4092 14.225C22.6365 14.5238 22.2524 15.3924 22.5511 16.165L25.3492 15.0831ZM19.2556 10.2021C19.7646 10.8557 20.7071 10.973 21.3607 10.464C22.0143 9.95502 22.1316 9.01254 21.6226 8.35891L19.2556 10.2021ZM15.7366 3.22702C15.0158 2.81871 14.1005 3.07204 13.6922 3.79285C13.2838 4.51366 13.5372 5.429 14.258 5.83732L15.7366 3.22702ZM7.92592 3.73603C8.74588 3.8542 9.50638 3.28529 9.62455 2.46533C9.74272 1.64537 9.17381 0.884874 8.35385 0.766706L7.92592 3.73603ZM1.44115 110.499C3.2342 110.569 4.77354 110.596 6.37131 110.599L6.37693 107.599C4.81216 107.596 3.31043 107.57 1.55885 107.501L1.44115 110.499ZM16.1304 110.516C17.5651 110.507 19.1714 110.5 21 110.5V107.5C19.1642 107.5 17.5512 107.507 16.1103 107.516L16.1304 110.516ZM21 110.5C22.0377 110.5 22.8554 109.965 23.4448 109.312C24.0207 108.673 24.4748 107.825 24.8494 106.896L22.0669 105.775C21.7545 106.55 21.459 107.034 21.2172 107.302C20.9889 107.555 20.9211 107.5 21 107.5V110.5ZM26.7009 99.0709C27.0472 96.741 27.3309 94.1202 27.5624 91.3079L24.5725 91.0618C24.3446 93.8304 24.0674 96.383 23.7335 98.6298L26.7009 99.0709ZM28.0557 83.584C28.1772 81.0694 28.2701 78.4757 28.3395 75.8544L25.3405 75.7751C25.2717 78.3783 25.1795 80.9498 25.0592 83.4392L28.0557 83.584ZM28.4799 68.1329C28.5077 65.5236 28.517 62.9349 28.5127 60.417L25.5127 60.4221C25.517 62.9292 25.5077 65.5055 25.48 68.101L28.4799 68.1329ZM28.4586 52.6929C28.4252 49.9206 28.3795 47.3255 28.3299 44.994L25.3306 45.0578C25.38 47.3812 25.4255 49.967 25.4588 52.729L28.4586 52.6929ZM28.1292 37.2622C28.0919 36.0534 28.0594 35.0989 28.0361 34.4462C28.0245 34.1198 28.0152 33.8688 28.0088 33.6992C28.0056 33.6144 28.0031 33.55 28.0014 33.5066C28.0006 33.4849 27.9999 33.4685 27.9995 33.4574C27.9993 33.4519 27.9991 33.4477 27.999 33.4449C27.9989 33.4435 27.9989 33.4424 27.9989 33.4416C27.9989 33.4413 27.9988 33.441 27.9988 33.4408C27.9988 33.4407 27.9988 33.4406 27.9988 33.4406C27.9988 33.4405 27.9988 33.4405 27.9988 33.4405C27.9988 33.4405 27.9988 33.4404 26.5 33.5C25.0012 33.5596 25.0012 33.5595 25.0012 33.5595C25.0012 33.5596 25.0012 33.5596 25.0012 33.5596C25.0012 33.5596 25.0012 33.5597 25.0012 33.5597C25.0012 33.5599 25.0012 33.5601 25.0012 33.5604C25.0012 33.561 25.0013 33.562 25.0013 33.5633C25.0014 33.5659 25.0016 33.5698 25.0018 33.5751C25.0022 33.5857 25.0028 33.6016 25.0037 33.6228C25.0053 33.6652 25.0077 33.7286 25.0109 33.8124C25.0172 33.98 25.0264 34.2288 25.038 34.553C25.0611 35.2014 25.0935 36.1511 25.1307 37.3548L28.1292 37.2622ZM26.5 33.5C27.9953 33.6187 27.9953 33.6185 27.9953 33.6184C27.9953 33.6184 27.9953 33.6182 27.9953 33.6181C27.9954 33.6179 27.9954 33.6177 27.9954 33.6175C27.9954 33.617 27.9955 33.6164 27.9955 33.6157C27.9956 33.6144 27.9958 33.6127 27.9959 33.6107C27.9962 33.6067 27.9966 33.6013 27.9971 33.5946C27.9981 33.5811 27.9995 33.5623 28.0012 33.5382C28.0045 33.49 28.009 33.4209 28.0141 33.3319C28.0244 33.154 28.0372 32.8968 28.0481 32.5695C28.07 31.9152 28.0844 30.9795 28.0561 29.8375L25.057 29.9119C25.0837 30.9886 25.0699 31.8656 25.0498 32.4693C25.0397 32.771 25.028 33.004 25.0191 33.1592C25.0146 33.2368 25.0108 33.2948 25.0082 33.3322C25.0069 33.351 25.006 33.3645 25.0053 33.3727C25.005 33.3768 25.0048 33.3796 25.0047 33.3811C25.0047 33.3818 25.0046 33.3822 25.0046 33.3822C25.0046 33.3822 25.0046 33.3822 25.0046 33.382C25.0047 33.382 25.0047 33.3819 25.0047 33.3817C25.0047 33.3817 25.0047 33.3816 25.0047 33.3815C25.0047 33.3814 25.0047 33.3813 26.5 33.5ZM27.3296 22.3794C26.9224 20.0465 26.299 17.5393 25.3492 15.0831L22.5511 16.165C23.4146 18.3983 23.9926 20.7085 24.3743 22.8952L27.3296 22.3794ZM21.6226 8.35891C20.0653 6.35896 18.131 4.58335 15.7366 3.22702L14.258 5.83732C16.27 6.97704 17.9121 8.47678 19.2556 10.2021L21.6226 8.35891ZM8.35385 0.766706C7.13741 0.591398 5.85388 0.5 4.5 0.5L4.5 3.5C5.71871 3.5 6.85893 3.58226 7.92592 3.73603L8.35385 0.766706Z" fill="#199B63"/>
</svg>
