<svg width="121" height="95" viewBox="0 0 121 95" fill="none" xmlns="http://www.w3.org/2000/svg">
<path d="M0.964286 81.915C0.365039 82.487 0.342958 83.4365 0.914967 84.0357L10.2364 93.801C10.8084 94.4003 11.7579 94.4223 12.3571 93.8503C12.9564 93.2783 12.9785 92.3288 12.4065 91.7296L4.12075 83.0493L12.801 74.7636C13.4003 74.1916 13.4223 73.2421 12.8503 72.6429C12.2783 72.0436 11.3288 72.0215 10.7296 72.5935L0.964286 81.915ZM1.96513 84.4996C2.69862 84.5166 3.5299 84.5558 4.45473 84.6135L4.64144 81.6193C3.69185 81.5601 2.8194 81.5186 2.03487 81.5004L1.96513 84.4996ZM9.55967 85.0141C11.1329 85.153 12.8341 85.3112 14.6521 85.4788L14.9275 82.4914C13.1133 82.3242 11.4042 82.1653 9.82359 82.0257L9.55967 85.0141ZM19.7987 85.9437C21.4569 86.0888 23.1817 86.2337 24.9627 86.3726L25.196 83.3817C23.4264 83.2437 21.7114 83.0996 20.0602 82.9551L19.7987 85.9437ZM30.1043 86.7419C31.7885 86.8517 33.5107 86.9522 35.2637 87.0391L35.4123 84.0428C33.6764 83.9567 31.9698 83.8571 30.2995 83.7483L30.1043 86.7419ZM40.4349 87.2496C42.1418 87.3033 43.8704 87.3411 45.6144 87.3595L45.6461 84.3597C43.9244 84.3415 42.2168 84.3041 40.529 84.2511L40.4349 87.2496ZM50.7997 87.3542C52.5217 87.3316 54.253 87.2873 55.988 87.2179L55.8681 84.2203C54.1617 84.2886 52.4573 84.3322 50.7604 84.3545L50.7997 87.3542ZM61.1757 86.9326C62.9062 86.8103 64.6353 86.6597 66.3574 86.4776L66.0419 83.4942C64.3566 83.6725 62.6623 83.82 60.9642 83.94L61.1757 86.9326ZM71.5258 85.8288C73.255 85.5758 74.9718 85.2866 76.6703 84.9576L76.0998 82.0124C74.4495 82.332 72.7782 82.6136 71.0915 82.8604L71.5258 85.8288ZM81.7753 83.8304C83.4837 83.4039 85.167 82.9309 86.8186 82.4075L85.9123 79.5477C84.3241 80.051 82.7009 80.5072 81.0486 80.9197L81.7753 83.8304ZM91.7681 80.6435C93.4149 79.9863 95.0208 79.2694 96.5781 78.4881L95.2328 75.8067C93.7569 76.5472 92.2291 77.2294 90.6561 77.8572L91.7681 80.6435ZM101.186 75.8898C102.692 74.9367 104.137 73.9087 105.513 72.8005L103.631 70.4643C102.349 71.497 100.997 72.4592 99.5817 73.3548L101.186 75.8898ZM109.448 69.2026C110.676 67.9257 111.824 66.5641 112.883 65.1129L110.459 63.3445C109.482 64.6833 108.422 65.9413 107.286 67.1232L109.448 69.2026ZM115.728 60.5908C116.554 59.0539 117.292 57.4356 117.935 55.7324L115.129 54.6721C114.532 56.2532 113.848 57.7512 113.085 59.1707L115.728 60.5908ZM119.507 50.6498C119.915 48.9845 120.244 47.2503 120.487 45.4449L117.514 45.044C117.284 46.7476 116.976 48.3769 116.593 49.935L119.507 50.6498ZM120.944 40.1923C120.981 39.3101 121 38.4128 121 37.5H118C118 38.3718 117.982 39.2272 117.947 40.0666L120.944 40.1923ZM121 37.5C121 36.5768 120.965 35.6737 120.895 34.7904L117.904 35.0263C117.968 35.8289 118 36.6533 118 37.5H121ZM120.017 29.5096C119.549 27.7166 118.92 26.0248 118.145 24.4302L115.447 25.742C116.136 27.1582 116.696 28.6642 117.114 30.267L120.017 29.5096ZM115.314 19.8301C114.234 18.4072 113.022 17.086 111.694 15.8597L109.659 18.0634C110.866 19.1785 111.958 20.3702 112.924 21.6433L115.314 19.8301ZM107.516 12.5483C106.08 11.5667 104.557 10.6616 102.96 9.82688L101.57 12.4853C103.072 13.2707 104.493 14.1161 105.823 15.0251L107.516 12.5483ZM98.199 7.62294C96.6116 6.97299 94.9707 6.37697 93.2864 5.83058L92.3607 8.68419C93.9802 9.20956 95.5503 9.78016 97.0623 10.3993L98.199 7.62294ZM88.2778 4.3785C86.6177 3.94988 84.9257 3.56133 83.2099 3.20946L82.6072 6.1483C84.2777 6.49087 85.9203 6.86821 87.5278 7.28325L88.2778 4.3785ZM78.1078 2.27803C76.4146 2.0047 74.7055 1.76226 72.9875 1.54776L72.6158 4.52465C74.3009 4.73503 75.9744 4.97248 77.6297 5.23969L78.1078 2.27803ZM67.8506 0.988566C66.1354 0.82791 64.4177 0.691817 62.7043 0.577455L62.5045 3.57079C64.1931 3.6835 65.8841 3.8175 67.5708 3.97549L67.8506 0.988566ZM57.554 0.29543C55.8238 0.220518 54.1047 0.165195 52.4039 0.126492L52.3356 3.12572C54.0175 3.16399 55.716 3.21866 57.4242 3.29262L57.554 0.29543ZM47.2587 0.0567627C45.5161 0.0484965 43.8014 0.0552785 42.1231 0.0736687L42.1559 3.07349C43.82 3.05525 45.5189 3.04854 47.2445 3.05673L47.2587 0.0567627ZM36.9665 0.165999C35.1933 0.209385 33.4756 0.26269 31.825 0.32118L31.9313 3.3193C33.5727 3.26113 35.2793 3.20818 37.0399 3.1651L36.9665 0.165999ZM26.719 0.523201C24.8766 0.602453 23.1519 0.681976 21.5746 0.752536L21.7087 3.74954C23.2914 3.67874 25.0088 3.59954 26.8479 3.52043L26.719 0.523201ZM16.4758 0.955755C15.5363 0.984047 14.7089 1.00004 14 1.00004V4.00004C14.7504 4.00004 15.6106 3.98317 16.5661 3.9544L16.4758 0.955755Z" fill="#199B63"/>
</svg>
